<?xml version="1.0" encoding="utf-8"?>
<svg version="1.1" id="Layer_1"
xmlns="http://www.w3.org/2000/svg"
xmlns:xlink="http://www.w3.org/1999/xlink"
width="256px" height="256px"
xml:space="preserve">
<g id="PathID_1" transform="matrix(1.10941, 0, 0, 1.10941, 42.45, 5.75)" opacity="1">
<linearGradient
id="LinearGradID_1" gradientUnits="userSpaceOnUse" gradientTransform="matrix(-0.0646728, 0.0646728, -0.0646728, -0.0646728, 74.9, 80.1)" spreadMethod ="pad" x1="-819.2" y1="0" x2="819.2" y2="0" >
<stop  offset="0" style="stop-color:#3D8CB7;stop-opacity:1" />
<stop  offset="1" style="stop-color:#01507B;stop-opacity:1" />
</linearGradient>
<path style="fill:url(#LinearGradID_1) " d="M93.7 12.35L95.05 12.95L96.3 13.2Q96.8 13.05 97.15 13.2L97.9 13.7Q98.4 14.2 98 14.2L97.05 13.95L96.55 14.45L96.05 14.3L95.2 13.7L94.55 13.45L93.95 13.45L93.2 12.95Q93.1 12.7 91.1 11.6Q89.5 10.7 89.25 10.35Q89 10 89.25 10.1L89.85 10.5L91.7 11.45L93.7 12.35M87.15 16.65Q86.3 16.3 87.4 16.5Q88 16.5 87.75 17L87.15 16.65M86.15 17.4Q85.8 17.75 84.45 17.4L83.8 17Q83.55 16.65 83.7 16.5L84.8 16.4L85.8 16.4L86.15 16.9L87.15 17.65Q87.65 18 87.3 18.15L86.4 18.15L86.15 18L86.15 17.4M84.8 15.3L85.55 15.8L84.8 15.8L83.8 15.9Q83.35 16.15 83.45 15.8Q83.45 15.4 83.95 15.15L84.55 14.9L84.8 15.3M81 28.15L80.35 28L79.6 27.9L79.15 27.5L78.75 27.25L78.15 27.25L78.5 28.75Q78.65 29.1 79.25 29L80.25 28.75Q80.75 28.5 80.85 28.75Q81 28.85 80.75 29.1L79 31.2L77.65 32.2L76.3 33.45L74.8 34.65Q73.95 35.15 73.7 35.9L72.85 36.9L71.85 37.5Q71.45 37.65 71.6 38.15Q71.6 38.5 71.95 39L71.7 39.85L71.45 40.45L70.1 41.1L67.9 39.6L67.4 39.25L66.9 38.5L66.8 37.75L66.3 36.9Q65.55 35.9 65.65 35.05Q65.8 34.65 65.55 34.05L65.4 33.3L65.55 32.3L65.8 31.45L66.15 30.95L67.75 30.1L67.65 28.75L67.5 27.65L66.3 27.65Q66.05 27.5 66.05 27L66.4 26.3L66.55 26.05L66.3 24.8L66.15 23.8L65.8 22.95L65.3 22.45L64.05 22.2L63.35 22.1L62.7 21.45L62.7 20.7L62.85 20Q62.95 19.5 63.8 19.5L65.4 19.35L66.4 18.6Q65.8 18.4 65.8 18.25L66.15 18L69.15 17Q69.25 17.4 70.5 17.9Q70.85 18.25 70.85 17.75L70.85 17L70.85 16.5L71.7 16.4L73.2 16.15L73.8 16.15L74.3 16.5L75.2 16.75L73.8 17.25Q73.45 17.5 73.8 17.5L74.7 17.9L76.3 17.25Q77.5 16.9 77.5 17.25L77.5 17.75L77.5 18.5L77.75 21.1L78 21.6L78.75 22.1Q79.75 22.7 79.75 23.3L79.85 24.05L80.25 25.05Q79.85 25.4 79.25 25.55Q78.9 25.65 79 25.8L79.25 26.3L80.6 27L80.85 27.4L81.1 28Q81.35 28.25 81 28.15M84.45 33.05Q85.3 32.55 86.15 32.45Q86.15 31.95 86.8 32.1L88 32.7L88.65 33.3L88.4 33.95Q88.25 34.65 87.5 34.65L86.9 34.9L86.15 35.4L85.3 35.65L84.45 35.8Q83.95 35.8 83.95 35.3L84.05 34.8Q83.7 34.9 83.2 34.4Q82.6 34.05 82.2 34.05L82.45 33.2Q82.6 32.55 82.95 32.7Q83.1 32.7 83.7 33.2L84.45 33.05M100 39.5Q100.25 39.6 100.5 40.35L100.5 41.85L101.6 41.95L102.35 42.2L102.95 42.55L103.35 42.95Q103.7 43.3 104.3 43.45Q104.8 43.8 104.95 44.65Q104.95 44.9 106.3 44.65L106.55 45.55Q106.65 46.25 106.9 46.65Q106.4 47.15 105.9 47.15Q105.65 47.25 105.3 47.65Q105.05 47.9 105.05 48.1Q104.8 48.6 104.05 48.85L103.7 49L103.2 49.1L103.45 48.6L103.45 48.1L103.7 47.65L103.45 47.25L103.1 46.9Q103.1 46.75 102.95 46.9L102.35 47.4Q102.2 47.25 102.2 47Q102.1 46.75 102.35 46.5L102.6 46.05L102.7 45.4L102.45 44.65L101.6 43.8L101.45 43.45L101.45 43.2L99.85 43.05L99.5 43.2L99.25 42.8L98.65 41.95L98.15 41.1L97.65 39.6L98.65 38.85L98.75 39.85L99.25 39.75Q99.75 39.5 100 39.5M100.1 44.05Q99.75 44.55 100.1 44.9L100.6 46.15L101 46.75L101 47.25Q100 47.65 99.75 48L98.75 48.6L98.25 48.25L98.4 47.9L98.65 47L98.65 46.4L98.15 46.5L97.75 46.25Q97.15 45.65 97.75 45.55L98.25 45.05L98 44.15Q97.9 43.7 98.15 43.8L98.5 44.05Q98.4 43.7 98.65 43.55L99 43.3L99.75 43.7L100.1 44.05M118.9 54.9Q118.9 55.3 119.5 55.9L119.85 56.25L120.1 56.75L120.5 57.4L120.85 57.75L121 58.25L120.6 58.75Q120.5 59.25 120.25 58.6L120.1 57.9L119.75 57.25L119 56.75L118.9 56.5L118.9 56L119 55.55L118.9 55.3L118.15 54.55Q118 54.55 118 54.15L118.15 53.55L118.25 53.7L118.5 54.15L118.65 54.4L118.9 54.9M116.15 60.1L116.15 60.45L115.8 60.35Q115.55 60.2 115.65 60.1L115.9 59.75L116.15 60.1M124.95 56.75L125.9 57.65L126.05 58.1L125.65 58.5L124.95 58.5Q124.55 58.35 124.3 58.5Q124.05 58.6 123.95 58.35L123.8 58.1L124.05 57.9L124.45 57.5L124.95 56.75M80.75 7.25Q81 7.5 80.6 7.5L79.5 7.4L80 7L80.75 7.25M67.9 16.65L65.2 18L63.95 18.5L62.85 19.1L62.2 19.5L61.35 19.75Q60.85 20.1 60.25 19.25L60 19.5L59.85 20L59.6 20.25L59.25 20.45Q58.5 20.25 58 19.85Q57.75 19.5 58.15 19.35L58.75 19.25L59.75 18.85L61.6 18.25L61.6 17.5Q61.35 17.25 61.6 17L62.45 15.55L62.7 15.4Q63.1 15.4 63.2 15.55L65.2 15.4L65.65 15.55L66.3 15.9L66.65 16.3L67.9 16.65M61.95 15.8L61.7 16.3L61.45 17Q61.1 17.25 61.25 17.65Q61.1 17.9 60.85 17.75L60 17.75L59.15 18Q58.65 18.15 58.75 17.9L59.15 17.25Q59.4 16.5 59.6 16.5L60 16.4L60.5 16.05Q60.6 15.8 61 15.8L61.95 15.8M49.85 15.15L49.75 15.65L49.4 16.15L49.15 16.5L49 17L48.5 16.9L47.75 16.75L46.9 16.65L46.3 16.5L45.4 16.4L45.05 16.4L45.8 15.55L46.3 15.3L46.55 15.3L46.9 15.3L47.5 15.15L48 15.05L48.4 15.05L49.25 14.8Q49.5 14.55 49.6 14.65L49.85 15.15M48 17.65L48.75 17.65Q49.4 17.65 49.4 18.15L49.6 18.25L50.1 18.75L49.4 19.35L48.5 20L48.15 20.25L47.9 20.6L47.9 21.1L47.5 21.6Q47.15 21.85 47.15 22.45L46.15 22.2L45.55 22.1Q45.3 22.2 45.3 21.85Q45.3 21.6 45.55 21.45L45.4 21.2L45.2 21.1L44.7 21.1L44.3 20.85L43.95 20.7L43.2 20.6L43.45 19.75Q43.7 19.1 43.95 19.1L44.45 18.75L44.8 18.25L45.2 17.9Q45.3 17.75 45.9 17.4L46.55 17.4L47.4 17.5L48 17.65M50.6 20.25Q50.85 20 51.1 20Q51.6 20 51.7 19.25L51.85 19.25L52.2 19.5L52.35 19.75L52.85 20L51.45 20.85L51 21.35L50.75 21.7L49.5 21.95Q49.15 21.95 49.6 21.45L50.25 20.7L50.6 20.25M46.9 24.05L46.65 23.55L46.55 23.45Q46.65 23.3 46.9 23.3L47.75 23.05Q48.5 22.55 48.15 23.2L47.9 23.95Q48.25 24.3 47.75 24.3L46.9 24.05M50.35 18.5L51 18.6L50.25 19.1L50.35 18.5M57.9 15.8L57.9 16.05L57.9 16.4L57.75 16.65Q57.3 16.75 57.05 17L56.9 17L57.15 16.5L56.8 16.15Q56.55 15.9 56.8 15.9L57.75 15.55L57.9 15.8M56.4 18L56.9 18.15L57.3 19.5Q56.55 19.75 56.65 20.1L57.3 20.6Q57.5 20.45 57.75 20.6L58.25 20.85L58.75 20.95L59.25 21.1L58.75 21.45L58.4 21.85Q58.15 22.1 57.9 21.85L56.9 21.2Q56.15 20.7 55.9 20.7L55.3 20.6Q54.95 20.45 55.2 20.1L55.55 19.6L55.65 19.25L55.8 18.75L56.05 18.4L56.15 18L56.4 18M57.3 17.4L57.5 17.15L58.4 16.7Q58.15 16.8 58 17.5L57.3 17.4M55.4 15.15L55.65 15.55L54.8 15.55Q54.55 15.55 54.7 15.4L55.2 15.3L55.4 15.15M54.05 14.9L53.8 15.05L52.7 14.9L51.85 14.9L51.6 14.9L51.7 14.55Q51.7 14.45 51.85 14.45L51.95 14.3L52.35 14.45L53.35 14.45L53.95 14.8L54.05 14.9M51.25 16.05Q51.35 15.9 51.45 15.9L52.1 15.55Q52.35 15.4 52.6 15.4L52.95 15.8L53.7 16.3L54.05 16.3Q54.3 16.3 54.2 16.5L53.7 17.25L53.1 17.5L52.7 17.65L52.45 17.75Q51.7 17.15 51.45 17.25L51.1 17.15L50.85 16.9L50.6 16.75Q50.35 16.65 50.75 16.4Q51.1 16.3 51.25 16.05M53.7 18L54.55 17.65Q54.95 17.5 54.95 17.65L55.4 17.75Q55.8 17.9 55.65 18.15L55.2 18.5L54.8 18.6Q54.3 18.75 54.2 19L53.45 18.6L53.45 18.4L53.7 18M55.4 19.1L54.45 19.6L54.55 19.25Q54.8 18.85 54.8 19L55.4 19.1M52.7 22.8L53.35 22.45L54.05 21.95L55.4 22.1L55.8 21.95L56.05 22.1L57.05 22.55L56.8 23.05L56.55 23.8Q57.4 24.2 57.5 24.55L57.65 24.8L57.9 24.9L58.65 25.4L59.15 26.15L59.75 27.65Q60 28 59.85 28.35L59.85 30.7L60 31.1L60.25 31.45L61.1 32.2L60.85 32.7L60.5 32.8Q60.25 32.8 60 33.05L59.5 33.55L59.15 33.7L58.9 33.45L58.15 31.6L57.5 31.6L57.4 31.6L57.4 32.45L57.3 33.05L57.15 33.3L57.3 33.45L58.15 34.05L57.75 34.8L57.5 35.4Q57.65 35.8 57.3 36.25L56.4 36.75Q55.9 36.9 55.9 36.65L54.95 35.8L54.55 35.4L54.05 35.05L53.7 34.65L53.7 34.3L53.35 33.8L52.95 33.3Q52.1 32.7 51.7 32.55L51.35 32.3L51 31.6Q51.45 31.6 51.7 31.2Q51.7 31.1 51.85 31.1Q51.85 30.95 52.1 31.1L52.7 31.45L53.35 31.7L53.8 31.6L54.05 31.7L53.95 31.2L54.05 30.85L55.2 30.45L55.8 30L55.55 28.5L55.55 26.4L55.2 25.9L54.8 25.8L54.05 25.65L53.45 25.4L53.1 25.15L52.6 25.15Q51.95 25.05 52.1 24.65L51.85 24.3Q51.6 24.2 51.7 24.05L52.1 23.45L52.2 23.2L52.35 23.05L52.7 22.8M57.75 23.05L58 23.55L58.15 23.7L58.15 23.95L57.65 23.95L57.5 23.8L57.05 23.7Q56.8 23.7 56.9 23.3L57.15 22.7L57.5 22.8L57.75 23.05M54.7 29.25Q54.2 29.1 53.7 29.25L53.45 29.25L53.8 29.1L54.2 28.75Q54.3 28.6 54.7 28.5L54.95 28.35L55.2 28.75L54.7 29.25M47.9 29.1L48.5 29L48.65 29.75L48.75 30.25L49 30.85Q49.75 32.1 49.5 32.55Q49.4 32.95 48.75 32.45L48 31.6Q47.75 31.2 46.65 31.95L46.55 31.6L46.65 31.2L47.05 30.95L46.55 30.85L46.15 30.95L45.9 30.85L46.4 30.35Q46.9 30 47.05 30L47.5 29.85L47.75 29.35Q47.75 29.1 47.9 29.1M19.15 82.45L19.85 81.95L20.5 81.7L21 81.95L21.7 81.95Q22.35 81.8 23.35 82.55L24.8 83.9L26.3 85.15L28 87.25L28.4 87.5L28.9 88.1Q29.85 88.75 29.85 89.35L28.5 89L27.3 88.75Q25.2 89.1 25.9 88.5L26.8 88L27.15 87.85Q26.8 87.85 26.3 87.5L25.65 86.65L25.65 86L25.4 85.75L24.2 85.15Q23.45 84.65 23.45 84.4L23.1 83.9L22.45 83.7L21.1 82.95Q20.5 82.3 20 82.55L19.15 82.45M26.8 91.35L26.9 91.6L25.8 91.45L25.3 90.7L25.2 90.6L24.8 90.35Q24.55 90.1 24.8 90.2Q25.2 90.2 25.3 90.35L26.15 90.6L26.4 90.85L26.8 91.35M30 92.7L29.75 92.45L29.5 91.8L29.75 91.7L30.1 91.7L30.35 91.95L31.1 92.2L31.35 92.05L31.35 91.8L31.1 90.95L30.85 90.6L30.75 90.2L31.25 90.1L31.45 90.35L31.95 90.6L32.35 90.7L33.35 90.95Q33.95 91.35 34.45 91.35Q35.05 91.35 35.3 91.95L35.4 92.45L35.65 92.7Q36.55 93.05 36.55 93.45L36.15 93.8L35.4 93.55Q34.8 93.55 34.55 93.8L33.8 93.65L33.2 93.8Q32.85 93.9 32.85 94.05L32.45 93.8L32.35 93.45L32.2 93.2Q31.45 92.8 31 92.95L30.75 92.7L30.35 92.55L30 92.7M39.75 94.8L38.9 95.15L38.75 94.9L38.25 94.9Q38 95.05 38 94.8L37.9 94.4L37.9 94.3L38.15 94.3L38.9 94.4L39.75 94.8M61.6 55.15L61.85 55.8L61.7 56.4L61.25 56.9Q60.85 57.25 60.75 57.9Q57.75 56.65 57.5 56.4Q57.3 56 56.8 55.9L55.65 55.8Q55.65 54.55 56.4 54.4Q56.9 54.3 57.15 54.05L57.65 53.2Q57.75 52.3 58.25 52.05L59.4 51.45L60.1 51.1Q59.4 51.7 59.15 52.55L58.5 53.45L59.6 53.3Q59.85 53.3 60.25 53.55L61.35 54.3L61.35 54.55L61.6 55.15M51.6 55.65L51.95 56.4L52.35 56.75L53.1 56.25Q53.2 56.65 52.6 56.9L51.35 56.75L51 56.4L51 55.8L51.25 55.15L51.6 55.65M53.2 58.1Q52.95 57.65 53.2 57.4L54.2 56.4L54.45 57.25Q54.7 57.75 54.55 57.9L54.05 58L53.2 58.1M109.25 38.35L108.9 38Q108.25 37.4 108.15 36.9L107.15 35.9L105.8 35.05L105.3 34.55Q105.05 34.3 104.7 34.2Q104.05 33.8 104.3 34.65L104.45 35.3Q104.3 35.8 104.55 36.15Q104.8 36.75 104.3 36.75Q104.05 36.9 103.1 36.5L101.25 34.65Q100.6 34.2 100 32.1L99.5 29.6Q99.35 28 98.65 27.15L97.5 25.4L96.9 23.7L96.55 23.05L96.65 22.7L96.9 21.35L96.8 20Q96.65 19.6 96.9 19.5Q97.15 19.35 97.65 19.85L98.25 20.25L98.65 19.75L99.75 19.6L101.35 19.1L102.35 19.1Q102.85 19.25 102.95 19.75L103.35 20.35L103.7 20.7L103.1 21.35L102.1 21.85L103.7 22.2L105.55 22.8L106.8 22.45L105.8 21.85L104.95 20.95L104.05 20.1Q103.8 20 103.8 19.6Q103.8 19.35 104.05 19.35Q104.45 19.5 104.05 19Q103.7 18.6 103.45 18.6L102.45 18.4L101.35 18.15Q101 18.15 101.1 17.9Q101.1 17.5 101.6 17.25Q101.95 17 102.35 17.4L103.1 17.9Q103.55 18 103.35 17.5Q103.1 17.15 102.6 17L101.85 16.5L101.25 15.8L98.9 13.7L97.3 12.35Q97.15 11.95 96.05 11.2L94.3 10.6L93.35 10.35Q92.95 10.1 92.95 9.75L94.45 10.25L95.4 10.25L97.05 10.6L98.4 10.95L100 11.35Q100.75 11.6 100.6 11.1Q100.5 10.7 99.85 10.5L98.75 9.75L97.4 9Q96.8 8.75 96.55 9Q96.4 9.1 96.65 9.6Q97.05 9.85 96.8 9.85L95.2 9.85L94.05 9.6L94.05 9.25L93.7 8.85L92.7 8.6Q92.1 8.6 91.95 8.25L91.85 7.65Q90.75 8.25 90.35 8L87.9 7.25L86.9 7L85.9 6.75L84.3 6.4L82.95 5.9Q82.6 5.65 81.7 5.55L80.5 5.65Q80.25 5.8 80 5.4L79.35 4.65Q79.15 4.45 79.5 4.45L80.35 4.3L83.2 4.45Q84.7 4.45 83.7 4.2L82.2 4.05L80.5 3.8L78.65 3.45L76.65 3.05L75.8 2.8Q74.05 2.2 73.55 1.6L71.35 1.85L68.9 1.95L67.15 1.85Q66.05 1.7 65.8 1.85L64.45 2.1L62.85 2.1Q62.35 1.95 61.85 2.1L61.25 2.35L59.5 2.45L59 2.2L58 2.6L56.65 2.8L56.15 2.95L55.65 3.05L55.2 3.3L54.55 3.45L53.7 3.7L52.6 3.95L52.1 4.05L51.45 4.3L50.5 4.55L49.75 4.65Q49.25 4.8 49.15 5.05L48.5 5.15Q48.25 5.55 47.05 5.65L46.55 5.8Q46.15 5.9 46.15 6.05L45.2 6.05Q44.8 6.05 44.2 6.55Q44.3 6.05 43.7 6.15L43.45 6.05L43.45 5.9L44.95 5.4L45.4 5.3L45.9 5.15L46.65 4.9Q47.65 4.8 47.9 4.55Q48.25 4.3 47.65 4.3L47.05 4.45L46.65 4.3L46.4 4.3L46.05 4.3L45.8 4.3L46.4 3.8Q47.05 3.7 47.15 3.45Q47.15 3.3 47.5 3.05L48 2.8L48.5 2.7L48.9 2.6L49.5 2.35L50.1 2.1L51.1 1.85L50.85 1.85L51.25 1.7L54.3 1.2L55.9 0.95L57.9 0.6L71.7 0.1Q94.55 1.1 113.45 13.8Q131.85 26.15 141.6 45.9Q141.95 46.5 142.1 47.25Q142.2 48.25 141.45 47.65L140.5 47Q140.25 47.15 140.5 47.65L141 48.6Q141.35 49.35 141.6 49.35L142.2 50.1L142.7 50.95Q142.85 51.6 143.3 51.7Q143.7 51.95 143.3 51.1L142.7 49.25L142.6 48.35L142.6 48.1Q146.15 55.8 148 64.05L148.25 66L148.4 67.4L148.4 69Q148.75 70.6 148.5 70.95L148.15 69.25L147.75 68.1L147.3 67.25L146.55 66L145.9 65.05Q145.4 63.7 144.95 63.45L144.2 62.55L143.8 61.6L143.55 60.95L142.7 60.2L141.6 59.6L140.35 58.6Q140.5 59 140.25 59L139.05 57.95L139.85 59.1L141 60.7L142.7 63.05Q143.45 64.3 144.2 64.4Q144.55 64.4 145.05 65.4L145.4 66.75Q145.4 67.4 146.55 68.75L147.05 69.5L147.9 70.6L148.5 71.7L149.25 73.2L149.15 70.2Q150.25 78.1 149.85 85.9Q149.15 101.45 142.7 115.65Q136.55 129.35 125.9 139.95Q126.15 139.2 128 137.1L128.9 136L129.35 134.9L130.25 133.65L130.6 132.3L130.85 130.95L131.1 130.2Q130.85 129.35 131 128.85L131.35 127.85Q131.7 126 132.6 125.25Q133.7 124.05 133.7 123.2L133.95 121.95L134.45 121.1L135.05 119.85L134.8 118.6L135.05 118L135.2 117.15L135.05 116.4L135.2 115.05L135.4 113.9L134.95 113.4L134.3 112.7L133.45 111.35L132.85 110.35L133.55 108.6L133.55 107.85L133.8 106.25L133.7 103.9Q132.35 103.55 131.85 104.4L130.75 105.4L129.5 104.15L128.75 103.65L125.8 105.4L124.2 107.25L122.6 108.75L121.45 108.6L120.75 109.1L119.5 109.85L118.9 110.1Q118.65 109.95 118.15 110.35L117.5 110.95Q117.15 111.45 116.4 111.35L115.05 111.2Q114.05 111.1 113.7 110.7Q113.35 110.1 111.7 109.45L110 108.75L109.6 107.6Q109.5 107.15 109 106.9L107.9 106.15L107.15 105.3Q106.9 104.9 106.05 104.4L104.95 103.8L104.8 103.45L104.8 102.95Q104.8 102.7 104.95 102.45L105.05 102.05L103.7 100.85Q104.3 99.7 104.95 99.1Q104.55 97.5 105.05 95.15Q104.05 92.45 103.55 91.95L104.2 88.75Q104.3 88.1 104.55 87.75L105.05 86L105.4 84.3L105.8 83.05L106.4 81.95Q106.65 81.45 107.4 80.7L108 79.95L109.15 78.1Q108.9 77 108.9 75.55L109 74.15Q109.15 73.05 109.5 72.7L110.25 71.95Q110.75 71.2 110.75 70.45Q110.75 68.1 111.6 68.5Q112.7 68.75 113.7 68.1Q114.8 67.65 115.3 66.65L115.9 65.55Q116.4 64.8 117.3 64.15L119.25 62.8L120.75 61.95Q121.35 61.85 122.1 60.85L122.2 60.45L122.2 60.35L123.35 60.2L123.55 61.45L124.05 61.85L124.55 62.45L124.55 63.05L124.55 64.55Q125.3 65.15 126.55 64.9L127.75 64.4L128.9 64.3L130 65.15L132.45 64.9L132.85 64.4L132.7 63.9L132.2 63.05L131.85 62.05L131.95 60.95Q132.45 59.95 133.2 59.95Q134.8 59.95 135.2 59.6Q135.4 59.35 136.8 58.6L136.9 57.25Q137.05 56.5 137.3 56.25L138.15 55.05L136.8 51.85L136.3 50.6L135.65 49.25Q135.3 49.1 135.3 48.85L134.2 50.85L133.45 51.7L132.85 51.7Q132.45 51.7 132.35 52.05L132.2 52.55L131.1 51.85L130.5 51.2L129.35 49.6L129.15 49.1Q129.6 48.25 129.75 46.65L129.15 46.5Q129 46.4 129.35 46.15L129.85 45.65L129.75 44.9Q129.6 44.55 129.6 43.8L129.6 43.3L129.85 42.45L130.6 42.8L130.85 42.7L131.45 42.2L131.25 40.6L131.25 39.6L130.6 38.6L129.85 38.5L127.15 38.5Q126.9 37.4 126.3 36.25L125.55 35.3L125.55 36.9Q125.55 37.75 125.8 38L126.05 38.75Q126.15 39.1 126.4 39.1Q126.8 39.1 126.9 39.25L127.05 39.75L127.4 40.35Q127.5 40.7 127.05 40.6Q126.55 40.45 126.15 40.1L125.9 39.35Q125.4 39.75 125.2 39.6L124.7 39.25L124.7 40.6Q124.8 41.1 125.05 41.2L125.8 42.1Q126.15 42.7 126.15 43.2L127.15 44.8L128 46.25L128.75 46.4Q129.25 46.5 129.15 46.75L129.25 48Q129.35 48.75 129 48.75Q128.5 48.6 128 48.75Q127.5 49 127.65 49.5L128.25 50.7Q128.75 51.6 128.5 51.85L128.4 52.45L129.15 52.3L129.6 52.55L129.85 53.05L129.6 53.05L129.15 53.3Q128.75 53.45 129.15 53.55L129.75 53.7Q130.1 53.8 130.25 54.3Q130.75 55.8 130.35 55.4L128.65 54.4L128.65 53.45L128.15 53.7L127.75 53.45L126.15 52.45L125.2 51.45L124.55 50.6L121.7 49.85Q120.1 49.35 119.85 49.1L118.65 48.6Q118.15 49.1 118.15 49.35Q118.15 49.6 118.5 50.1Q118.75 50.85 120.25 51.35L122.1 52.05Q124.2 52.95 124.8 52.8L125.55 52.8L125.55 52.95L125.65 53.3L124.7 53.2Q124.2 53.2 124.45 53.45L125.2 54.3L125.65 54.9Q125.55 55.3 125.8 56.75Q125.2 56.5 125.05 55.8Q124.95 55.15 123.95 54.3L122.95 54.15Q122.45 53.8 121.95 53.95L121.35 53.8L121.1 53.55L120.25 53.55L119.35 53.2L118.65 52.55L117.9 51.95Q117.65 51.7 116.8 51.95L116.4 52.7L116.15 53.95L115.8 54.4L115.05 54.65L113.95 55.3L114.7 57.25L113.7 59.1Q113.55 59.35 113.55 59.75L113.7 60.6Q113.55 61.2 114.05 61.85L114.45 62.2L114.45 62.7L114.3 63.45Q114.45 63.7 114.2 64.4L113.7 65.65Q113.2 66.15 112.35 66.25Q111.7 66.4 111.6 66.75L111.45 67Q111.45 67.5 111.1 67.75L109.5 66.75Q109.25 66.4 108.5 66.75L107.4 67.4L107.05 65.8Q106.8 65.3 106.3 65.3Q105.8 65.15 105.9 64.3L105.3 61.35Q105.05 60.45 104.45 59.95Q104.2 59.85 104.55 59.1L104.8 58.35L105.05 58.35L105.4 58.1L106.15 57.9L107.05 57.75L109 57.15L110 56.9L108.75 52.95L108 52.8Q107.65 52.7 107.65 52.05L106.4 51.95L105.8 52.05Q105.2 51.85 105.05 51.6Q104.8 51.45 105.05 50.95Q105.2 50.7 106.05 50.45L106.9 50.2L105.9 49L106.4 48.85L107.15 48.75Q107.65 48.6 107.5 47.4L107.4 46.9L107.65 46.15Q108.25 45.3 107.9 43.3Q107.75 42.8 108 42.55L108.65 42.1L108 39.75L107.3 38.75L106.3 38Q105.9 37.75 105.9 37.25L106.15 36.15L107.05 37.5L107.5 37.5L107.75 37.65L107.75 38.25Q107.65 38.6 108 39L108.5 39.5L109.75 39Q110.5 38.5 111.7 39.25L111.95 37.4L112.45 37Q112.85 36.75 113.1 37L113.1 35.55L112.85 35.05L112.35 34.4L111.6 33.7L111.1 33.2L110.75 32.8Q110.5 32.55 110.85 32.45L111.6 32.45L112.1 32.45L111.85 32.2Q110.85 31.45 110.5 31.35L109.35 30.6Q109.15 30.35 109.6 29.6Q110 29 110.35 29Q110.6 29 110.5 28.6L110.35 27.75Q110.25 27.4 109.75 27.5L109 27.65L109 27.9L108.9 28.5L108.65 30.25L107.5 30.1Q107.15 30 106.8 29.6L105.8 28.75L104.8 27.65L103.8 25.9Q103.35 25.05 102.95 24.9L101.95 24.8Q101.45 25.3 102.1 25.9L103.1 26.65Q103.45 26.9 103.55 27.5L103.8 28.85L106.05 31.2L106.55 31.35Q107.15 31.45 107.5 31.7Q108 31.95 107.9 32.7L107.65 33.55L109.6 35.8Q110.35 36.4 109.5 36.75L109.75 37.25L109.35 37.9Q109.15 38.15 109.25 38.35M80.75 6.55Q81.6 6.75 81.1 6.9L80.5 6.9L80.1 6.65Q80 6.4 80.25 6.4L79.85 6.3L79.5 5.9Q79.35 5.65 79.6 5.8L80.35 6.15L80.75 6.3L80.35 6.4L80.75 6.55M43.1 61.2Q43 61.4 42.7 61.35L42.1 61.2L41.45 61.2L41.1 61.35L40.6 61.2L40.25 61.1L40 61.1L39.4 61.2L38.65 61.6L38.5 62.3Q38.65 62.55 38 62.8Q37.65 62.95 37.05 63.55Q37.15 62.8 36.8 62.55L36.8 62.8L36.9 63.45L36.65 64.3L36.4 64.55Q36.15 64.65 36.05 64.9L35.65 65.3L35.3 65.05L35.3 64.65L35.4 64.4L35.65 63.55L36.15 62.8L36.4 62.55L36.15 62.55L35.55 63.05L35.4 63.7L35.3 63.9L35.05 63.7L34.55 63.3L35.05 64.4L34.95 64.9L34.45 65.65L34.55 65.65L34.95 65.9L34.95 66.5L34.45 67.75L33.1 68.75L30.35 69.6L28.9 69.85Q28 70.1 27.75 70.45L27.3 71.1L26.55 72.05L26.3 73.05Q26.05 74.05 26.05 77.4L25.8 78.5L25.55 79L25.2 79.75L24.8 80.1Q24.2 80.35 23.8 79.85Q23.55 79.25 23.95 78.35L23.95 76.9L23.7 75.4L23.95 74.8L24.3 73.8L24.05 72.7L23.7 71.95Q22.2 71.45 21.7 70.35L21.1 69.75L20.1 69.95L19.4 69.95L18.9 69.5Q18.4 69 18.25 69.5L18.25 69.95Q16.9 69.5 16.55 68.6Q16.3 68 16.05 68.1L15.8 68.25L14.15 67.7Q14.35 67.8 13.55 68Q12.6 68.25 11.95 68Q11.35 67.85 11.1 68.25L10.85 69.25L10.1 71.1L9 72.2L8.75 72.45L8.9 73.05L8.5 73.45L8.25 74.15Q8.4 74.8 7.75 75.9L7.75 76.5L7.75 77.65L7.9 78.5L7.5 79.5L7.75 80.1L8 80.85L8.25 81.45L8.65 82.45L9.25 82.55L10.35 82.8L11 82.8L11.25 83.55L11.85 83.45Q12.35 83.3 12.6 82.45L13.2 81.35Q13.2 80.95 13.45 80.95L14.05 80.85L14.7 80.95L15.4 81.1Q16.05 81.2 16.15 81.45L16.55 81.95L16.8 82.45L16.55 82.8L16.15 83.2L15.55 83.8Q15.3 83.9 15.05 85.15L14.95 85.65L14.7 86L14.2 85.3L14.2 85.65L13.95 86.15L13.8 86.65L13.8 87.4L13.7 87.5L13.55 87.85L12.95 88.5L13.35 88.85Q13.55 89.35 14.8 89.5L15.4 89.6L15.55 89.85Q15.8 90.1 16.55 90.2L17.15 90.7L17.4 91.2L17.65 91.7L18.15 92.05L18.4 92.3L18.25 92.8L18.15 93.05L18 93.65L17.9 94.15L17.5 95.05L17.15 96.5L17.15 97.15L16.8 97.75L16.9 98L17.3 98.6Q17.15 98.85 17.3 99L17.5 99.35L18 100.1L18.5 100.85L18.75 101.35L19 101.55L19.75 101.45L21 101.45L21.85 101.55L22.1 102.05L22.45 102.7L23.35 103.55L25.05 103.45L25.55 103.05L25.9 102.95L25.9 102.05Q25.9 101.95 26.4 101.8L27.65 101.95L29 101.7Q29.4 101.45 30.1 101.35L31.1 100.95Q31.45 100.6 31.6 100.6L31.6 100.7L31.7 100.85L31.45 101.2L30.85 102.3L30.5 103.2L30.5 103.55L30.85 103.9L31.6 104.05L31.95 103.9Q32.35 103.65 32.6 103.65L32.7 103.2L32.7 102.7L33.45 102.95L34.05 103.65L34.55 104.05L35.05 104.3L35.4 104.8L36.9 105.05L37.3 105.05L37.75 105.15L39 106.25L40.75 106.4L41.25 106.5L41.7 106.5L42.2 106.65L42.35 106.9L42.95 107.4L44.45 108.35L44.2 109L44.3 109.45L45.2 109.7L45.55 109.85L46.05 110.2L46.4 110.7L46.9 111.2L47.5 111.7Q47.9 112.05 47.9 112.55Q47.9 113.4 49 114.05Q50 113.9 50.35 114.05L51.25 114.15L51.95 114.15L52.6 114.3Q53.1 114.3 53.35 114.65Q54.95 115.15 55.55 116.15L56.8 117L57.5 117.35L58.15 118.1Q58.25 119 58.65 119.45L59.25 119.95Q59.5 120.35 59.15 120.6L57.75 122.05Q56.9 122.45 57.05 122.7L57.4 123.05L57.4 123.4L57.5 123.9L57.9 123.65L58.15 122.8Q58.25 122.05 58.65 122.2L59.25 122.55L60.25 122.95L61.1 123.2Q60.25 124.4 59.5 124.55L58.65 124.55L58.15 124.4L58.65 125.15L59.15 125.25L59.75 125.25L60.25 124.9L60.85 124.15Q61.25 123.65 61.7 123.65L62.7 123.65L63.8 124.05L65.55 124.8L67.05 125.5L67.75 126L68.75 126.15L70.1 126.25L71.25 126.65L72.1 126.9L72.85 126.9Q73.1 126.75 73.45 126.9L74.2 127.25L76.55 128.85L77.15 129.2L77.75 129.2L78.75 129.35L79.25 129.45L79.6 129.95Q80 130.7 79.85 131.55L79.25 133.65L78.5 134.55L77.3 135.4Q76.9 135.5 76.65 135.9L76.05 136.4Q75.55 136.75 75.3 137.25L73.7 138.5L73.35 139.45L73.45 139.85L73.45 140.2L73.35 140.7L73.2 141.2L72.95 141.8L72.95 142.8L72.2 143.55L71.6 144.4Q71.35 144.65 71 145.25L70.75 145.5L70.6 146Q70.25 146.15 70.25 146.25L69.85 146.75L69.15 147L68.65 147.5Q67.9 147.75 67.65 147.5L67.05 147.35L66.55 147.5L66.05 147.6L65.3 147.5L64.45 147.85L63.45 148.25L62.85 148.25L62.35 148.5L61.1 148.95L60.5 149.35Q60.1 149.45 60 149.85Q59.85 150.1 60 150.85L60.1 151.05L60 151.45L59.15 152.05Q58.4 152.2 58 152.7L57.65 152.9L57.05 153.15Q56.8 153.15 56.4 153.65L55.8 153.9L55.05 154.4L53.2 155.15L52.35 155.15L51.6 154.9L50.6 154.65L50.1 154.4L49.75 154.3Q49.6 154.05 49 154.15L48.75 153.9L48.75 154.05L49.15 154.4L49.6 154.8L50 155.25L50.5 155.75L51 156L51 156.25Q51 156.5 49.85 156.75L49.25 156.65L48.65 156.5L47.05 156.4L46.65 156.25L46.3 156.25L45.4 156.15L45.4 156.5L45.8 157.25L45.55 157.5L44.8 157.6L44.55 157.75L44.3 157.75Q44.05 157.6 44.05 157.85L44.05 158.25L44.8 159.45Q44.95 159.7 44.7 159.85L43.8 160.1L43.2 159.85L42.2 159.45Q41.7 159.45 41 158.85L40.35 158.6L39.85 158.6Q39.15 158.6 38.5 157.75L38.25 157.35L37.75 157Q36.8 156.5 36.4 155.15L35.3 154.9L34.8 154.55L34.45 154.05L34.05 153.4Q33.95 152.7 33.35 152.2L33.55 151.55L34.05 150.45L33.1 148L32.7 146.65Q32.6 145.9 32.85 145.65L32.85 144.8L32.7 143.55L32.6 142.7Q32.45 142.2 32.7 141.8Q32.95 141.55 32.85 141.05L32.6 139.95L32.2 139.1L31.85 138.5L31.45 137.75L31.25 137.35L30.75 136.75L29.85 136.25L28.65 135.15Q28.15 134.4 27.5 134.15L26.9 133.9L26.3 133.15L25.4 132.45Q24.8 132.2 24.7 131.95L23.8 130.7Q23.8 130.1 23.1 129.1Q22.45 128.25 22.45 127.6L22.2 126.9L21.7 126.15L21.25 125.4Q21.1 125.15 21.1 124.8L21 124.05L20.25 122.8L19.25 121.55L18.15 120.2Q17.9 119.85 17.9 119.35L17.75 118.6Q17.5 118.35 17.65 118.1Q17.9 117.85 18.25 117.85Q18.65 117.85 18.75 117.6L18.9 117.15L18.9 116.65L18.4 115.9L18.4 114.3Q18.25 114.05 18.65 113.8L18.9 113.3Q18.9 112.95 19.15 112.7Q19.4 112.45 19.75 112.45Q20.75 112.55 21.1 111.55L21.6 110.95Q21.95 110.85 22.2 111.1Q22.45 111.35 22.7 111.1L23.55 110.2Q23.2 110.2 22.7 109.7Q22.45 109.35 22.6 108.25L22.95 106.9L22.95 106.25L22.6 105.05Q22.1 103.9 22.45 103.8L22.6 103.65L22.45 103.3L21.7 102.7L21.35 102.3L20 102.7L19.85 102.8L20.1 103.8L19.85 103.9L19.6 103.9L19.25 103.45L19 103.2L18.65 102.55L18 101.95L16.9 101.1L16.4 100.2Q15.9 99.5 16.05 99.25L15.65 98.5L15.3 98.1L15.2 98.6L15.05 98.6L14.7 98.25Q14.45 98 14.55 97.75L14.55 97L14.55 96.4L13.2 92.3L12.6 92.3L12.35 92.05L11.7 91.35L10.85 90.6L10.35 89.85L9.85 89.1L9.15 87.65L8.5 86L7.4 84.8L6.3 84.9L6.05 84.55L4.95 83.3L4.55 82.45L3.8 81.1L3.45 80.2L2.95 79.35L2.45 78.6L2.2 78L1.7 76.75L1.6 75.65L1.35 75.3L1.35 74.9Q1.6 75.15 1.35 74.8Q1.1 74.4 1.25 73.8L2.45 70.45Q2.2 68.1 2.35 68L2.2 67.4L2.2 66.75L2.2 66.25L2.1 65.55L2.2 65.15L2.1 64.4L2.6 63.8L2.7 63.55L2.6 62.95L2.7 62.55L2.85 61.35Q3.1 59.75 2.85 59.25Q2.7 58.85 3.1 57.75Q3.35 56.75 3.7 56.25L4.05 54.9Q4.2 53.95 3.8 53.45L2.45 56.4L2.35 57.25L2.1 58.1Q1.95 58.6 1.95 59.75L1.45 60.95L1.45 61.7L1.1 62.7Q0.85 63.05 0.75 64.05Q0.6 64.9 0.75 65.65L0.75 66.75Q0.35 67.65 0.1 67.25Q-0.15 66.9 0.1 65.15L0 64.15Q-0.15 63.9 0.35 62.55L1.1 60.45L0.75 58.35L1.7 58L1.95 55.55L2.45 54.3L2.95 53.05Q2.95 52.7 3.45 51.45L4.3 48.85L4.05 47.25L4.45 46.25L4.95 45.4L5.65 44.15L6.9 42.7L6.65 42.1L7.15 41.2L7.65 40.45L8.25 39.6L9 38.6L9.5 38.15L11.45 36.65Q13.2 35.05 13.55 34.9L14.8 33.7L16.05 31.85Q16.4 31.1 16.55 31.35L16.55 32.7Q17.75 31.1 18.4 30.6L19.15 29.1L19.5 27.65Q19.5 27.25 21.85 25.3L24.8 23.05Q25.3 22.7 25.2 22.55L24.45 22.45L25.65 21.6Q28.15 19.75 28.75 19.5L29.25 19L28.5 18.85Q28.15 18.85 27.5 19.35L27.3 19.35L28.25 18.25L29.25 17.4Q29.85 17.4 30.1 15.9L31.25 14.8L32.7 13.7L31.7 13.8Q31 13.95 31 13.2Q31 12.8 30.5 12.7L29.15 11.95L29.6 11.45L30.5 11.35L31.45 11.45Q31.85 11.6 32.45 11.1L33.35 10Q33.55 9.35 34.7 9Q35.8 8.5 36.65 8.6L37.3 8.5L38 7.9L38.15 8.4L38.5 9L39.4 9L40.25 8.4Q40.75 7.75 41.35 7.4L42.45 7L43.2 6.9L43.2 7.25L42.95 7.65L41.7 8.85L43.2 8.6Q43.45 8.15 43.8 8L44.45 7.9L45.3 7.75L45.8 7.5L46.65 8L46.9 8.5L46.9 9.1L46.4 9.35L45.55 9.6Q45.2 9.75 45.05 10L43.45 12.1L42.7 12.8Q42.35 13.05 42.35 13.45L41.1 14.8L41.95 14.55L42.45 14.8Q42.95 15.15 43.95 15.55L43.35 17.65L42.95 19.1Q43.1 19.85 42.7 20.1L41.85 20.25Q41.6 20.35 41.85 20.7L42.2 21.1L45.05 21.7L44.55 22.35L44.3 22.7L44.3 23.2L44.45 23.55Q45.3 23.55 45.8 24.05Q46.4 24.65 46.15 25.55L47.65 25.05L48.4 24.65L48.9 24.2L49.15 24.05L48.9 23.3L48.75 23.05L49.6 22.7L50.1 22.45Q50.5 22.1 50.85 22.1Q51.25 22.1 51.35 21.85L51.95 21.35L52.6 20.7L52.95 20.25Q53.2 20 53.7 20.25L54.2 20.85Q54.45 21.35 54.05 21.2Q53.8 21.1 53.2 21.45L52.6 21.7L51.7 21.95Q51.1 22.1 51.1 22.2L51 23.2Q50.75 23.95 50.35 23.95Q50.1 23.95 49.85 24.3L49.75 24.55L49 25.8L50 25.4L50.5 25.55L51.45 25.8L52.2 25.4Q52.35 25.15 52.6 25.4L52.85 25.8L52.85 26.5L52.6 27.5L51.95 28Q51.45 28.25 50.85 28.85L50.25 29L49.6 28.75Q49.5 28.35 48.9 28.15Q48.25 27.75 48 28Q47.65 28.35 46.65 28.75Q46.65 29.6 46.05 30.1Q45.4 29.75 45.2 29.75Q44.95 29.75 44.55 30L43.35 30.25L42.85 30.35L41.95 30.95L40.35 31.1L39.6 32.2Q39.25 32.7 39 32.55Q38.75 32.55 38.4 33.3L38 34.05Q38.25 34.05 38.25 34.2L38 34.65L36.9 36.05Q37.65 35.9 37.9 36.05Q38.15 36.15 38.4 36.75L39 37.9L39.25 39Q39.4 40 40 40.2L41.35 41.2Q40.5 41.6 40.35 42.3L40.25 43.3Q39.75 44.55 39.85 44.8L40 45.65Q40.1 46.25 40.5 46.4Q41.1 46.5 41 46.65L41.6 46.15Q41.95 45.65 42.35 45.8L42.1 45.15Q41.95 44.9 42.2 44.4L42.2 43.45Q42.35 42.95 42.6 42.8L43.8 42.3Q44.8 42.2 45.8 41.6L46.3 41.45L46.65 39.5L46.8 38.85L46.65 38.35L46.3 37.9L46.05 37.9L47.5 37.65Q48 37.4 48.15 36.75Q48.15 35.8 48.65 35.3L49.85 34.05L50.6 34.65Q51 35.05 51.35 34.9Q52.1 34.65 52.1 35.3Q51.95 35.9 52.1 36.05Q52.1 36.65 52.35 36.75L53.45 37.25L53.1 38.6L52.85 39.25L52.1 39.5L51.7 39.75L52.95 40.35L53.8 40.35L55.4 39.85L56.4 38.85L56.9 39.6L56.8 40.35L56.3 41.2L56.9 41.6Q56.4 42.3 56.8 42.95Q57.15 43.3 56.4 44.3Q57.15 44.65 57.75 45.3L58.65 46.15L59.75 47L58.4 46.9L57.65 47.25L56.15 47.5Q56.3 48.1 57.3 48L58 47.75L58.75 47.4L59.5 47.65L60 48Q60.5 48.5 60.25 49.35Q59.75 51.35 59.25 50.95Q58 50.35 57.65 50.95L56.8 51.7L56.05 52.05L53.7 51.7Q52.6 50.85 51.7 51.1L50.75 51.2L50.35 50.95L50 50.85Q49.85 50.85 49.6 51.35Q49.5 51.85 48.75 52.05L47.9 52.2L47.3 52.45L46.8 52.8L48.25 52.95L49.15 52.7L50.35 52.45Q51.1 52.3 51.1 52.7L51.1 53.45Q51 53.8 50.6 53.7Q50.35 53.55 49.75 53.7L49.15 53.8Q50.75 54.3 50.25 54.9Q49.85 55.3 50.1 56.15Q50.25 57.25 50.6 57.15Q50.85 57.15 51.6 57.5L52.6 58L52.85 58.1L53.2 58.5Q53.45 58.5 53.35 58.6L52.35 58.6L50.6 58.75Q49.85 58.75 49.5 59.25Q48.4 60.85 48.25 60.1L48.15 59.25Q48.15 58.75 48.5 58.75L50.5 58Q48.9 57.15 47.75 57.5L47.4 57.65L47.15 58.1L46.15 58.25Q45.3 58.25 45.05 58.5L44.55 58.6L43.8 58.6Q43.35 58.75 43.2 59.35L42.45 60.35L42.7 60.85L43.1 61.2" />
</g>
<g id="PathID_2" transform="matrix(0.991355, 0, 0, 0.991355, 18.85, 238.2)" opacity="1">
<linearGradient
id="LinearGradID_2" gradientUnits="userSpaceOnUse" gradientTransform="matrix(-0.0971351, 0.0971351, -0.0215447, -0.0215447, 112.65, -11.8)" spreadMethod ="pad" x1="-819.2" y1="0" x2="819.2" y2="0" >
<stop  offset="0" style="stop-color:#3D8CB7;stop-opacity:1" />
<stop  offset="1" style="stop-color:#01507B;stop-opacity:1" />
</linearGradient>
<path style="fill:url(#LinearGradID_2) " d="M26.35 -30.3L7.85 -30.3L7.85 -22L24.05 -22L24.05 -15.5L7.85 -15.5L7.85 0L0.15 0L0.15 -36.8L26.35 -36.8L26.35 -30.3" />
</g>
<g id="PathID_3" transform="matrix(0.991355, 0, 0, 0.991355, 45.8, 238.2)" opacity="1">
<linearGradient
id="LinearGradID_3" gradientUnits="userSpaceOnUse" gradientTransform="matrix(-0.0971351, 0.0971351, -0.0215447, -0.0215447, 85.45, -11.8)" spreadMethod ="pad" x1="-819.2" y1="0" x2="819.2" y2="0" >
<stop  offset="0" style="stop-color:#3D8CB7;stop-opacity:1" />
<stop  offset="1" style="stop-color:#01507B;stop-opacity:1" />
</linearGradient>
<path style="fill:url(#LinearGradID_3) " d="M8.95 0L1.75 0L1.75 -36.8L8.95 -36.8L8.95 0" />
</g>
<g id="PathID_4" transform="matrix(0.991355, 0, 0, 0.991355, 55.95, 238.2)" opacity="1">
<linearGradient
id="LinearGradID_4" gradientUnits="userSpaceOnUse" gradientTransform="matrix(-0.0971351, 0.0971351, -0.0215447, -0.0215447, 75.2, -11.8)" spreadMethod ="pad" x1="-819.2" y1="0" x2="819.2" y2="0" >
<stop  offset="0" style="stop-color:#3D8CB7;stop-opacity:1" />
<stop  offset="1" style="stop-color:#01507B;stop-opacity:1" />
</linearGradient>
<path style="fill:url(#LinearGradID_4) " d="M17.6 -13.3Q16.55 -12.4 13.8 -11.9Q10.75 -11.35 9.85 -10.85Q7.95 -9.85 7.95 -7.45Q7.95 -4.4 11.15 -4.4Q12.65 -4.4 14.25 -5.1Q15.8 -5.75 16.65 -6.75Q17.7 -8.05 17.7 -10.7L17.65 -12L17.6 -13.3M25.25 0L18.55 0Q18.2 -0.55 17.85 -2.2Q15.35 0.55 9.9 0.55Q6.1 0.55 3.65 -1.15Q0.75 -3.2 0.75 -7.1Q0.75 -12.7 5.1 -14.8Q7.1 -15.75 13.25 -16.5Q17.6 -17.1 17.6 -18.9Q17.6 -20.45 16.3 -21.4Q15 -22.35 13.25 -22.35Q11.45 -22.35 10.2 -21.4Q8.75 -20.3 8.55 -18.35L1.7 -18.35Q1.95 -21.7 3.25 -23.75Q4.55 -25.8 7.5 -26.9Q10.2 -27.95 13.6 -27.95Q25.25 -27.85 25.25 -16.85L25.25 0" />
</g>
<g id="PathID_5" transform="matrix(0.991355, 0, 0, 0.991355, 82.1, 238.2)" opacity="1">
<linearGradient
id="LinearGradID_5" gradientUnits="userSpaceOnUse" gradientTransform="matrix(-0.0971351, 0.0971351, -0.0215447, -0.0215447, 48.85, -11.8)" spreadMethod ="pad" x1="-819.2" y1="0" x2="819.2" y2="0" >
<stop  offset="0" style="stop-color:#3D8CB7;stop-opacity:1" />
<stop  offset="1" style="stop-color:#01507B;stop-opacity:1" />
</linearGradient>
<path style="fill:url(#LinearGradID_5) " d="M20.6 -13Q20.6 -21.8 14.55 -21.8Q8.4 -21.8 8.4 -13.4Q8.4 -9.45 10.35 -7.15Q12 -5.1 14.55 -5.1Q17 -5.1 18.7 -7.1Q20.6 -9.3 20.6 -13M27.65 1.5Q27.65 6.95 23.4 10.2Q19.5 13.15 14 13.15Q8.65 13.15 4.95 10.25Q0.85 7.05 0.85 1.45L7.55 1.45Q7.55 4.05 9.4 5.55Q11.05 6.9 13.55 6.9Q16.25 6.9 18.25 5.35Q20.45 3.6 20.45 0.8L20.45 -3.35Q19.7 -1.55 17.65 -0.5Q15.6 0.5 13 0.5Q8.8 0.5 5.6 -1.85Q2 -4.55 1.35 -9.3Q0.9 -12.9 0.9 -14.65Q0.9 -18.15 2.45 -21.45Q3.9 -24.5 6.75 -26.3Q9.65 -28.1 12.8 -28.1Q17.8 -28.1 20.3 -23.9L20.4 -23.85L20.4 -25.15L20.4 -27.3L27.65 -27.3L27.65 1.5" />
</g>
<g id="PathID_6" transform="matrix(0.991355, 0, 0, 0.991355, 123.85, 238.2)" opacity="1">
<linearGradient
id="LinearGradID_6" gradientUnits="userSpaceOnUse" gradientTransform="matrix(-0.0971351, 0.0971351, -0.0215447, -0.0215447, 6.75, -11.8)" spreadMethod ="pad" x1="-819.2" y1="0" x2="819.2" y2="0" >
<stop  offset="0" style="stop-color:#3D8CB7;stop-opacity:1" />
<stop  offset="1" style="stop-color:#01507B;stop-opacity:1" />
</linearGradient>
<path style="fill:url(#LinearGradID_6) " d="M9.35 0L1.65 0L1.65 -36.8L9.35 -36.8L9.35 0" />
</g>
<g id="PathID_7" transform="matrix(0.991355, 0, 0, 0.991355, 134.55, 238.2)" opacity="1">
<linearGradient
id="LinearGradID_7" gradientUnits="userSpaceOnUse" gradientTransform="matrix(-0.0971351, 0.0971351, -0.0215447, -0.0215447, -4, -11.8)" spreadMethod ="pad" x1="-819.2" y1="0" x2="819.2" y2="0" >
<stop  offset="0" style="stop-color:#3D8CB7;stop-opacity:1" />
<stop  offset="1" style="stop-color:#01507B;stop-opacity:1" />
</linearGradient>
<path style="fill:url(#LinearGradID_7) " d="M25.95 -17.5L18.75 -17.5Q18.4 -19.6 17.05 -20.8Q15.7 -22 13.95 -22Q11.1 -22 9.5 -19.35Q8.25 -17.1 8.25 -14.05Q8.25 -5.25 13.6 -5.15Q15.5 -5.15 16.95 -6.4Q18.45 -7.65 18.65 -9.85L25.9 -9.85Q25.3 -5.05 21.8 -2.1Q18.25 0.8 13.35 0.85Q7.2 0.85 3.95 -3.1Q0.85 -6.85 0.85 -13.1Q0.85 -19.75 3.85 -23.65Q7.15 -28 13.6 -28Q18.75 -28 22.05 -25.3Q25.65 -22.45 25.95 -17.5" />
</g>
<g id="PathID_8" transform="matrix(0.991355, 0, 0, 0.991355, 160.25, 238.2)" opacity="1">
<linearGradient
id="LinearGradID_8" gradientUnits="userSpaceOnUse" gradientTransform="matrix(-0.0971351, 0.0971351, -0.0215447, -0.0215447, -29.9, -11.8)" spreadMethod ="pad" x1="-819.2" y1="0" x2="819.2" y2="0" >
<stop  offset="0" style="stop-color:#3D8CB7;stop-opacity:1" />
<stop  offset="1" style="stop-color:#01507B;stop-opacity:1" />
</linearGradient>
<path style="fill:url(#LinearGradID_8) " d="M21.4 -13.6Q21.4 -21.9 14.85 -21.9Q8.25 -21.9 8.25 -13.6Q8.25 -5.3 14.85 -5.3Q21.4 -5.3 21.4 -13.6M28.7 -13.6Q28.7 -7.1 25 -3.2Q21.25 0.7 14.85 0.7Q8.35 0.7 4.6 -3.25Q0.8 -7.2 0.8 -13.6Q0.8 -20.05 4.55 -24Q8.3 -28 14.85 -28Q21.4 -28 25.15 -23.95Q28.7 -20 28.7 -13.6" />
</g>
<g id="PathID_9" transform="matrix(0.991355, 0, 0, 0.991355, 189.3, 238.2)" opacity="1">
<linearGradient
id="LinearGradID_9" gradientUnits="userSpaceOnUse" gradientTransform="matrix(-0.0971351, 0.0971351, -0.0215447, -0.0215447, -59.25, -11.8)" spreadMethod ="pad" x1="-819.2" y1="0" x2="819.2" y2="0" >
<stop  offset="0" style="stop-color:#3D8CB7;stop-opacity:1" />
<stop  offset="1" style="stop-color:#01507B;stop-opacity:1" />
</linearGradient>
<path style="fill:url(#LinearGradID_9) " d="M26.35 0L19.15 0L19.15 -16.45Q19.15 -19.35 18.25 -20.5Q17.2 -21.9 14.4 -21.9Q8.85 -21.9 8.85 -15.6L8.85 0L1.65 0L1.65 -27.3L8.55 -27.3L8.55 -24.7L8.6 -23.2L8.65 -23.25Q9.9 -25.55 12.3 -26.8Q14.7 -28.05 17.35 -28.05Q22.8 -28.05 25.25 -23.8Q26.35 -21.75 26.35 -18.85L26.35 0" />
</g>
<g id="PathID_10" transform="matrix(0.991355, 0, 0, 0.991355, 216.5, 238.2)" opacity="1">
<linearGradient
id="LinearGradID_10" gradientUnits="userSpaceOnUse" gradientTransform="matrix(-0.0971351, 0.0971351, -0.0215447, -0.0215447, -86.65, -11.8)" spreadMethod ="pad" x1="-819.2" y1="0" x2="819.2" y2="0" >
<stop  offset="0" style="stop-color:#3D8CB7;stop-opacity:1" />
<stop  offset="1" style="stop-color:#01507B;stop-opacity:1" />
</linearGradient>
<path style="fill:url(#LinearGradID_10) " d="M25.85 -8.7Q25.85 -5.75 24.4 -3.6Q21.35 0.8 13.75 0.8Q8.6 0.8 4.9 -1.5Q0.8 -4.2 0.75 -8.7L8.15 -8.7Q8.15 -6.7 9.9 -5.55Q11.45 -4.6 13.7 -4.6Q15.7 -4.6 17.15 -5.4Q18.6 -6.15 18.6 -7.45Q18.6 -9.15 14.25 -10.1Q7.8 -11.6 6.1 -12.4Q1.75 -14.5 1.75 -18.85Q1.75 -21.45 3 -23.55Q4.25 -25.65 7.15 -26.9Q10.05 -28.15 13.45 -28.15Q18.05 -28.15 21.15 -25.95Q24.75 -23.5 25 -19L17.9 -19Q17.35 -22.6 13.1 -22.6Q11.35 -22.6 10.05 -21.85Q8.8 -21.1 8.8 -19.9Q8.8 -18.35 13.2 -17.4Q19.6 -15.95 21.45 -15.1Q25.85 -12.95 25.85 -8.7" />
</g>
<g id="PathID_11" transform="matrix(0.184325, 0, 0, 0.184325, 245.7, 14.05)" opacity="1">
<path style="fill:#FDCE13;fill-opacity:1" d="M29.8 -29.3Q43.7 -30.5 53.5 -39.5L53.7 40.5Q43.6 49.7 29.8 50.7Q15.9 51.9 5.8 44.5L-5.9 35.6Q-15.8 28.3 -29.7 29.3Q-43.9 30.5 -53.7 39.6L-53.7 -40.5Q-43.8 -49.6 -29.7 -50.7Q-15.8 -51.9 -5.9 -44.5L5.8 -35.6Q15.8 -28.2 29.8 -29.3" />
</g>
<g id="PathID_12" transform="matrix(0.184325, 0, 0, 0.184325, 245.7, 32.6)" opacity="1">
<path style="fill:#208A55;fill-opacity:1" d="M29.8 -29.3Q43.7 -30.5 53.5 -39.5L53.7 40.5Q43.6 49.7 29.8 50.7Q15.9 51.9 5.8 44.5L-5.9 35.6Q-15.8 28.3 -29.7 29.3Q-43.9 30.5 -53.7 39.6L-53.7 -40.5Q-43.8 -49.6 -29.7 -50.7Q-15.8 -51.9 -5.9 -44.5L5.8 -35.6Q15.8 -28.2 29.8 -29.3" />
</g>
<g id="PathID_13" transform="matrix(0.184325, 0, 0, 0.184325, 245.7, 51.05)" opacity="1">
<path style="fill:#4A7DBC;fill-opacity:1" d="M29.8 -29.3Q43.7 -30.5 53.5 -39.5L53.7 40.5Q43.6 49.7 29.8 50.7Q15.9 51.9 5.8 44.5L-5.9 35.6Q-15.8 28.3 -29.7 29.3Q-43.9 30.5 -53.7 39.6L-53.7 -40.5Q-43.8 -49.6 -29.7 -50.7Q-15.8 -51.9 -5.9 -44.5L5.8 -35.6Q15.8 -28.2 29.8 -29.3" />
</g>
<g id="PathID_14" transform="matrix(0.184325, 0, 0, 0.184325, 245.7, 69.6)" opacity="1">
<path style="fill:#FF0000;fill-opacity:1" d="M29.8 -29.3Q43.7 -30.5 53.5 -39.5L53.7 40.5Q43.6 49.7 29.8 50.7Q15.9 51.9 5.8 44.5L-5.9 35.6Q-15.8 28.3 -29.7 29.3Q-43.9 30.5 -53.7 39.6L-53.7 -40.5Q-43.8 -49.6 -29.7 -50.7Q-15.8 -51.9 -5.9 -44.5L5.8 -35.6Q15.8 -28.2 29.8 -29.3" />
</g>
</svg>
